<svg width="120" height="120" viewBox="0 0 120 120" fill="none" xmlns="http://www.w3.org/2000/svg">
<path d="M59.4655 97.4551V106L0 105.257V73.3065L3.01091 68.8483L21.2018 66L29.6073 71.8204L36.6327 66L45.7909 66.6192L57.96 70.2105L60.3436 81.1084L65.4873 82.0991L69 86.6811C68.9164 88.7038 68.2222 93.1703 66.1145 94.8545C64.0069 96.5387 60.8036 97.29 59.4655 97.4551Z" fill="#F7960A"/>
<path fill-rule="evenodd" clip-rule="evenodd" d="M98.7097 64.1904L112.055 66.6173C116.657 67.4575 120 71.4598 120 76.1379V106.452H0V76.1379C0 71.4598 3.34268 67.4575 7.94323 66.6173L21.2903 64.1904V60.4546C19.2216 58.7922 17.5914 56.6129 16.5934 54.1104C11.6498 53.6823 7.74194 49.5694 7.74194 44.5161V32.1406C7.74194 19.7555 17.8201 9.67742 30.2051 9.67742C36.2072 9.67742 41.8473 12.0136 46.0915 16.2579L47.5139 17.6802C51.5285 19.2254 54.1935 23.0765 54.1935 27.4105V44.5161C54.1935 49.5694 50.2857 53.6823 45.3421 54.1104C44.3422 56.611 42.7139 58.7922 40.6452 60.4546V64.1904L53.9885 66.6173C56.4796 67.07 58.5758 68.4696 59.9981 70.3815C61.4204 68.4696 63.5166 67.0719 66.0077 66.6173L79.3548 64.1904V60.4546C77.2861 58.7922 75.6559 56.6129 74.6579 54.1104C69.7143 53.6823 65.8064 49.5694 65.8064 44.5161V34.8387C65.8064 22.0312 76.2248 11.6129 89.0323 11.6129C101.84 11.6129 112.258 22.0312 112.258 34.8387V44.5161C112.258 49.5694 108.35 53.6823 103.407 54.1104C102.407 56.611 100.778 58.7922 98.7097 60.4546V64.1904ZM89.0323 94.0373L90.8307 92.2398L89.3281 83.2258H88.7365L87.2338 92.2398L89.0323 94.0373ZM85.872 71.6611L80.8064 67.862L79.4418 68.1096L80.7214 75.7816L85.872 71.6611ZM88.1326 79.3548H89.932L91.9062 76.3921L89.0323 74.0918L86.1564 76.3921L88.1326 79.3548ZM97.2581 67.862L92.1925 71.6611L97.3431 75.7816L98.6227 68.1096L97.2581 67.862ZM104.516 48.3871C104.516 48.9286 104.487 49.4654 104.433 49.9918C106.723 49.2131 108.387 47.0668 108.387 44.5161C108.387 41.9966 106.763 39.8674 104.516 39.066V48.3871ZM108.387 34.8387C108.387 24.1661 99.7048 15.4839 89.0323 15.4839C78.3597 15.4839 69.6774 24.1661 69.6774 34.8387V36.8224C70.8077 35.9671 72.11 35.3282 73.5484 35.0343V30.9677H77.4193V36.4803C78.6545 36.141 79.8094 35.5182 80.7233 34.6043L82.8449 32.4836L84.0934 33.1064C88.8886 35.5069 94.2603 36.7742 99.6236 36.7742H100.645V30.9677H104.516V35.0362C105.955 35.3282 107.257 35.969 108.387 36.8243V34.8387ZM73.5484 39.066C71.301 39.8674 69.6774 41.9966 69.6774 44.5161C69.6774 47.0668 71.3417 49.2131 73.6316 49.9918C73.5777 49.4654 73.5484 48.9286 73.5484 48.3871V39.066ZM77.4193 40.4656V48.3871C77.4193 54.7918 82.6276 60 89.0323 60C95.4369 60 100.645 54.7918 100.645 48.3871V40.6452H99.6236C94.1299 40.6452 88.6297 39.4487 83.6265 37.1749L83.4602 37.3412C81.8205 38.9809 79.6875 40.0649 77.4193 40.4656ZM94.8387 62.7312C93.045 63.4608 91.0859 63.871 89.0323 63.871C86.9786 63.871 85.0195 63.4608 83.2258 62.7312V64.8387L89.0323 69.1935L94.8387 64.8387V62.7312ZM27.8075 71.6611L22.7419 67.862L21.3773 68.1096L21.3788 68.1185L17.5755 68.8316L17.5706 68.8023L8.63785 70.425C5.87639 70.9296 3.87097 73.332 3.87097 76.1379V102.581H58.0645V94.0004L60.4839 94.628C61.0452 94.7707 61.5055 94.8387 61.9355 94.8387C65.1364 94.8387 67.7419 92.2332 67.7419 89.0323C67.7419 85.8313 65.1364 83.2258 61.9355 83.2258C61.5055 83.2258 61.0452 83.2938 60.4839 83.4384L58.0645 84.0641V76.1379C58.0645 73.332 56.0591 70.9277 53.2957 70.4221L44.3649 68.8004L44.3645 68.8031L40.558 68.111L40.5582 68.1096L39.1935 67.862L34.128 71.6611L34.1762 71.6997L31.007 74.1232L30.9677 74.0918L30.9285 74.1232L27.7592 71.6997L27.8075 71.6611ZM46.4516 48.3871C46.4516 48.9286 46.4223 49.4654 46.3684 49.9918C48.6583 49.2131 50.3226 47.0668 50.3226 44.5161C50.3226 41.9966 48.699 39.8674 46.4516 39.066V48.3871ZM43.3528 18.9929C39.8419 15.482 35.1714 13.5484 30.2051 13.5484C19.955 13.5484 11.6129 21.8904 11.6129 32.1406V36.8224C12.7432 35.9671 14.0455 35.3282 15.4839 35.0343V30.9677H19.3548V36.7742H20.9766C23.8023 36.7742 26.301 34.972 27.1998 32.2918L30.8695 33.5166C30.4669 34.7225 29.8431 35.7989 29.0805 36.7468C31.7531 36.5984 34.0817 34.8576 34.9389 32.2918L38.6095 33.5166C38.2069 34.7225 37.5832 35.7989 36.8205 36.7468C39.41 36.6041 41.6611 34.9606 42.5806 32.528V30.9677H46.4516V35.0343C47.89 35.3264 49.1923 35.9671 50.3226 36.8224V27.4105C50.3226 24.5848 48.5203 22.0861 45.8402 21.1901L45.4064 21.0465L43.3528 18.9929ZM15.4839 39.066C13.2365 39.8674 11.6129 41.9966 11.6129 44.5161C11.6129 47.0668 13.2772 49.2131 15.567 49.9918C15.5132 49.4654 15.4839 48.9286 15.4839 48.3871V39.066ZM19.3548 40.6452V48.3871C19.3548 54.7918 24.5631 60 30.9677 60C37.3724 60 42.5806 54.7918 42.5806 48.3871V38.6615C40.8427 39.9212 38.7172 40.6452 36.4604 40.6452H34.8387V38.6615C33.1007 39.9212 30.9753 40.6452 28.7185 40.6452H27.0968V38.6615C25.3588 39.9212 23.2334 40.6452 20.9766 40.6452H19.3548ZM36.7742 62.7312C34.9805 63.4608 33.0214 63.871 30.9677 63.871C28.9141 63.871 26.955 63.4608 25.1613 62.7312V64.8387L30.9677 69.1935L36.7742 64.8387V62.7312ZM61.9355 98.7097V102.581H116.129V76.1379C116.129 73.332 114.124 70.9277 111.36 70.4221L102.429 68.8004L100.076 82.9262L94.9417 78.819L93.0015 81.7279L94.9757 93.5667L89.0323 99.5111L83.0888 93.5695L85.063 81.7298L83.1228 78.8209L77.9883 82.9281L75.6351 68.8023L66.7024 70.425C63.9409 70.9296 61.9355 73.332 61.9355 76.1379V79.3548C67.2713 79.3548 71.6129 83.6964 71.6129 89.0323C71.6129 94.3681 67.2713 98.7097 61.9355 98.7097Z" fill="black"/>
<path d="M116.129 0H120V3.87097H116.129V0Z" fill="black"/>
<path d="M108.387 0H112.258V3.87097H108.387V0Z" fill="black"/>
<path d="M100.645 0H104.516V3.87097H100.645V0Z" fill="black"/>
</svg>
