<svg width="120" height="120" viewBox="0 0 120 120" fill="none" xmlns="http://www.w3.org/2000/svg">
<path d="M2.5 29.25H101L51.5 54.25L2.5 29.25Z" fill="#F7960A"/>
<path d="M88 63.9997C88 59.5877 84.412 55.9997 80 55.9997C75.588 55.9997 72 59.5877 72 63.9997V67.9997C72 72.4117 75.588 75.9997 80 75.9997C81.708 75.9997 83.284 75.4517 84.584 74.5377C85.544 76.5757 87.602 77.9997 90 77.9997C93.308 77.9997 96 75.3077 96 71.9997V63.9997C96 55.1777 88.822 47.9997 80 47.9997C71.178 47.9997 64 55.1777 64 63.9997V69.9997C64 78.8217 71.178 85.9997 80 85.9997H90C93.308 85.9997 96 83.3077 96 79.9997H92C92 81.1017 91.104 81.9997 90 81.9997H80C73.382 81.9997 68 76.6177 68 69.9997V63.9997C68 57.3817 73.382 51.9997 80 51.9997C86.618 51.9997 92 57.3817 92 63.9997V71.9997C92 73.1017 91.104 73.9997 90 73.9997C88.896 73.9997 88 73.1017 88 71.9997V67.9997V63.9997ZM84 67.9997C84 70.2057 82.206 71.9997 80 71.9997C77.794 71.9997 76 70.2057 76 67.9997V63.9997C76 61.7937 77.794 59.9997 80 59.9997C82.206 59.9997 84 61.7937 84 63.9997V67.9997Z" fill="black"/>
<path d="M61.638 111.072C60.382 111.316 59.104 111.516 57.838 111.664L58.298 115.636C59.668 115.476 61.0479 115.262 62.4039 114.998L61.638 111.072Z" fill="black"/>
<path d="M53.9979 111.962C52.7199 112.01 51.4219 112.012 50.1519 111.966L50.0039 115.964C50.6659 115.988 51.3299 116 51.9999 116C52.7219 116 53.4419 115.986 54.1579 115.958L53.9979 111.962Z" fill="black"/>
<path d="M35.116 109.07L33.766 112.836C35.062 113.302 36.394 113.724 37.724 114.086L38.778 110.228C37.55 109.892 36.318 109.502 35.116 109.07Z" fill="black"/>
<path d="M42.524 111.102L41.768 115.03C43.118 115.29 44.498 115.5 45.872 115.656L46.322 111.682C45.052 111.538 43.774 111.344 42.524 111.102Z" fill="black"/>
<path d="M28.108 105.928L26.196 109.438C27.412 110.102 28.664 110.724 29.914 111.286L31.554 107.638C30.396 107.118 29.238 106.542 28.108 105.928Z" fill="black"/>
<path d="M15.938 96.6138L13.052 99.3858C14.016 100.388 15.02 101.358 16.04 102.268L18.704 99.2838C17.76 98.4418 16.83 97.5438 15.938 96.6138Z" fill="black"/>
<path d="M21.6699 101.738L19.2359 104.914C20.3279 105.748 21.4679 106.556 22.6279 107.31L24.8079 103.956C23.7339 103.258 22.6799 102.512 21.6699 101.738Z" fill="black"/>
<path d="M69.044 109.016C67.844 109.452 66.612 109.846 65.38 110.188L66.45 114.042C67.778 113.674 69.11 113.248 70.408 112.776L69.044 109.016Z" fill="black"/>
<path d="M82.468 101.632C81.466 102.406 80.414 103.154 79.338 103.86L81.53 107.206C82.692 106.446 83.83 105.634 84.914 104.798L82.468 101.632Z" fill="black"/>
<path d="M88.064 96.6117C87.214 97.4957 86.326 98.3537 85.424 99.1657L88.1 102.138C89.074 101.262 90.032 100.336 90.946 99.3857L88.064 96.6117Z" fill="black"/>
<path d="M76.04 105.84C74.928 106.454 73.772 107.034 72.602 107.564L74.258 111.206C75.518 110.632 76.768 110.006 77.97 109.344L76.04 105.84Z" fill="black"/>
<path d="M45.702 4.36376C44.332 4.52376 42.952 4.73776 41.596 5.00176L42.362 8.92776C43.618 8.68376 44.896 8.48376 46.162 8.33576L45.702 4.36376Z" fill="black"/>
<path d="M49.842 4.04174L50.002 8.03774C51.278 7.98774 52.576 7.98574 53.848 8.03374L53.996 4.03574C52.62 3.98574 51.224 3.98974 49.842 4.04174Z" fill="black"/>
<path d="M37.55 5.95776C36.222 6.32576 34.89 6.75176 33.592 7.22376L34.956 10.9838C36.156 10.5478 37.388 10.1538 38.62 9.81176L37.55 5.95776Z" fill="black"/>
<path d="M29.7419 8.79376C28.4819 9.36776 27.2319 9.99376 26.0299 10.6558L27.9599 14.1598C29.0719 13.5458 30.2279 12.9658 31.3979 12.4358L29.7419 8.79376Z" fill="black"/>
<path d="M66.2761 5.91375L65.2201 9.76975C66.4481 10.1057 67.6801 10.4957 68.8821 10.9277L70.2341 7.16375C68.9381 6.69775 67.6061 6.27575 66.2761 5.91375Z" fill="black"/>
<path d="M58.128 4.34375L57.68 8.31975C58.95 8.46375 60.228 8.65775 61.478 8.89975L62.232 4.96975C60.882 4.70975 59.502 4.49975 58.128 4.34375Z" fill="black"/>
<path d="M22.47 12.7938C21.308 13.5538 20.17 14.3658 19.086 15.2018L21.532 18.3678C22.534 17.5938 23.586 16.8458 24.662 16.1398L22.47 12.7938Z" fill="black"/>
<path d="M81.372 12.6897L79.192 16.0437C80.266 16.7417 81.32 17.4877 82.33 18.2617L84.764 15.0857C83.672 14.2517 82.532 13.4437 81.372 12.6897Z" fill="black"/>
<path d="M87.9599 17.7318L85.2959 20.7157C86.2399 21.5577 87.1699 22.4557 88.0619 23.3857L90.9479 20.6138C89.9839 19.6118 88.9799 18.6418 87.9599 17.7318Z" fill="black"/>
<path d="M15.9 17.8598C14.926 18.7358 13.968 19.6618 13.054 20.6118L15.936 23.3858C16.786 22.5038 17.674 21.6458 18.576 20.8338L15.9 17.8598Z" fill="black"/>
<path d="M74.086 8.71374L72.446 12.3617C73.604 12.8817 74.762 13.4577 75.892 14.0717L77.804 10.5617C76.588 9.89774 75.336 9.27574 74.086 8.71374Z" fill="black"/>
<path d="M120 29.9997V25.9997H102H100H2C0.894 25.9997 0 26.8957 0 27.9997V83.9997C0 89.5137 4.486 93.9997 10 93.9997H94C99.514 93.9997 104 89.5137 104 83.9997V45.9997H108V41.9997H104V37.9997H114V33.9997H104V29.9997H120ZM93.82 29.9997L52 51.7457L10.18 29.9997H93.82ZM100 83.9997C100 87.3077 97.308 89.9997 94 89.9997H10C6.692 89.9997 4 87.3077 4 83.9997V31.2937L51.078 55.7737C51.368 55.9237 51.684 55.9997 52 55.9997C52.316 55.9997 52.632 55.9237 52.922 55.7737L100 31.2937V83.9997Z" fill="black"/>
<path d="M12 81.9997H8V85.9997H12V81.9997Z" fill="black"/>
<path d="M20 81.9997H16V85.9997H20V81.9997Z" fill="black"/>
<path d="M28 81.9997H24V85.9997H28V81.9997Z" fill="black"/>
</svg>
