<svg width="120" height="120" viewBox="0 0 120 120" fill="none" xmlns="http://www.w3.org/2000/svg">
<g clip-path="url(#clip0)">
<path d="M1.27661 106.723V30.1277L37.5319 41.8723V117.447L1.27661 106.723Z" fill="#F7960A"/>
<path d="M1.78723 29.617V106.723L38.5532 117.957L78.383 106.723L118.213 117.957V41.3617L78.383 29.617L38.5532 41.3617L1.78723 29.617Z" stroke="black" stroke-width="4"/>
<path fill-rule="evenodd" clip-rule="evenodd" d="M71 42L64.5 48.5L62 57L64.5 67.5L77.5 79L93.5 63.5V53L88.5 43L77.5 40L71 42ZM78 63C81.3137 63 84 60.3137 84 57C84 53.6863 81.3137 51 78 51C74.6863 51 72 53.6863 72 57C72 60.3137 74.6863 63 78 63Z" fill="#F7960A"/>
<path d="M76.596 80.8103C76.9698 81.1841 77.46 81.3712 77.95 81.3712C78.4399 81.3712 78.9301 81.1843 79.3039 80.8103L90.6485 69.4657C97.6504 62.4636 97.6504 51.0707 90.6485 44.0686C87.2566 40.6767 82.7469 38.8085 77.95 38.8085C73.153 38.8085 68.6433 40.6764 65.2514 44.0686C58.2495 51.0705 58.2495 62.4636 65.2514 69.4657L76.596 80.8103ZM67.9596 46.7768C70.6282 44.1082 74.1761 42.6385 77.95 42.6385C81.7238 42.6385 85.2717 44.1082 87.9403 46.7768C93.4491 52.2855 93.4491 61.249 87.9403 66.7578L77.95 76.7482L67.9593 66.7578C62.4508 61.2488 62.4508 52.2855 67.9596 46.7768Z" fill="black"/>
<path d="M77.95 65.8509C82.9895 65.8509 87.0891 61.751 87.0891 56.7115C87.0891 51.672 82.9892 47.5721 77.95 47.5721C72.9107 47.5721 68.8105 51.672 68.8105 56.7115C68.8105 61.751 72.9105 65.8509 77.95 65.8509ZM77.95 51.4019C80.8777 51.4019 83.2593 53.7837 83.2593 56.7115C83.2593 59.6392 80.8775 62.0211 77.95 62.0211C75.0225 62.0211 72.6403 59.6392 72.6403 56.7115C72.6403 53.7837 75.0222 51.4019 77.95 51.4019Z" fill="black"/>
<line x1="38.0851" y1="117.957" x2="38.0851" y2="41.3617" stroke="black" stroke-width="4"/>
<line x1="78.4255" y1="106.979" x2="78.4255" y2="84.2553" stroke="black" stroke-width="4"/>
<path d="M53.5128 4.45617C52.1137 4.61957 50.7043 4.83813 49.3195 5.10774L50.1018 9.11728C51.3845 8.86809 52.6897 8.66383 53.9826 8.51268L53.5128 4.45617Z" fill="black"/>
<path d="M57.7409 4.12733L57.9043 8.20835C59.2075 8.15728 60.5331 8.15524 61.8321 8.20426L61.9833 4.1212C60.578 4.07014 59.1523 4.07422 57.7409 4.12733Z" fill="black"/>
<path d="M45.1874 6.08409C43.8311 6.45992 42.4708 6.89499 41.1451 7.37703L42.5382 11.217C43.7637 10.7718 45.0219 10.3694 46.2801 10.0201L45.1874 6.08409Z" fill="black"/>
<path d="M37.2133 8.98043C35.9265 9.56664 34.6499 10.206 33.4223 10.882L35.3934 14.4606C36.529 13.8335 37.7096 13.2412 38.9045 12.6999L37.2133 8.98043Z" fill="black"/>
<path d="M74.5245 6.03915L73.446 9.9772C74.7002 10.3203 75.9584 10.7186 77.186 11.1598L78.5667 7.31575C77.2432 6.83983 75.8828 6.40886 74.5245 6.03915Z" fill="black"/>
<path d="M66.2032 4.43575L65.7457 8.49635C67.0427 8.64341 68.3479 8.84154 69.6245 9.08869L70.3945 5.07507C69.0158 4.80954 67.6064 4.59507 66.2032 4.43575Z" fill="black"/>
<path d="M29.7866 13.0655C28.5998 13.8417 27.4376 14.671 26.3306 15.5248L28.8286 18.7581C29.8519 17.9677 30.9263 17.2037 32.0252 16.4827L29.7866 13.0655Z" fill="black"/>
<path d="M89.9418 12.9593L87.7154 16.3847C88.8122 17.0975 89.8887 17.8594 90.9202 18.6499L93.4059 15.4063C92.2907 14.5546 91.1265 13.7294 89.9418 12.9593Z" fill="black"/>
<path d="M96.67 18.1086L93.9493 21.1561C94.9134 22.016 95.8631 22.9331 96.7741 23.8829L99.7215 21.0519C98.737 20.0286 97.7117 19.038 96.67 18.1086Z" fill="black"/>
<path d="M23.0768 18.2393C22.0821 19.134 21.1037 20.0797 20.1702 21.0499L23.1135 23.8829C23.9816 22.9821 24.8885 22.1059 25.8097 21.2766L23.0768 18.2393Z" fill="black"/>
<path d="M82.5007 8.89873L80.8258 12.6243C82.0084 13.1554 83.1911 13.7437 84.3451 14.3707L86.2978 10.7861C85.0559 10.1079 83.7773 9.47269 82.5007 8.89873Z" fill="black"/>
</g>
<defs>
<clipPath id="clip0">
<rect width="120" height="120" fill="white"/>
</clipPath>
</defs>
</svg>
