<svg width="120" height="120" viewBox="0 0 120 120" fill="none" xmlns="http://www.w3.org/2000/svg">
<g clip-path="url(#clip0)">
<path d="M86 120H35V48H45L60 27L75 48H86V120Z" fill="#F7960A"/>
<path d="M113.351 34.146L106.452 33.1603V29.9225C108.821 27.7952 110.323 24.7199 110.323 21.2903V17.4194C110.323 11.0147 105.114 5.80645 98.7097 5.80645C92.305 5.80645 87.0968 11.0147 87.0968 17.4194V21.2903C87.0968 24.7181 88.5985 27.7933 90.9677 29.9225V33.1603L80.1213 34.7111L79.4011 33.888C79.7357 33.1433 80.0287 32.3787 80.2763 31.5972L85.1613 30.619V19.7036L80.2763 18.7254C79.9105 17.5687 79.4437 16.4478 78.8861 15.3733L81.6523 11.2273L73.9359 3.5109L69.788 6.2752C68.7135 5.71762 67.5926 5.25454 66.4378 4.88691L65.4558 0H54.5423L53.5622 4.88502C52.4055 5.25265 51.2846 5.71762 50.212 6.27331L46.0641 3.50901L38.3477 11.2254L41.1139 15.3714C40.5563 16.4459 40.0914 17.5668 39.7237 18.7235L34.8387 19.7036V30.619L39.7237 31.5972C39.9713 32.3787 40.2643 33.1433 40.5989 33.8861L39.8787 34.7092L29.0323 33.1603V29.9225C31.4015 27.7952 32.9032 24.7199 32.9032 21.2903V17.4194C32.9032 11.0147 27.695 5.80645 21.2903 5.80645C14.8856 5.80645 9.67742 11.0147 9.67742 17.4194V21.2903C9.67742 24.7181 11.1791 27.7933 13.5484 29.9225V33.1603L6.6485 34.146C2.85881 34.6875 0 37.9839 0 41.8104V71.6129C0 74.8138 2.60553 77.4193 5.80645 77.4193C6.48784 77.4193 7.13426 77.2804 7.74194 77.0631V120H34.8387V48.3871H42.6562C44.4273 48.3871 46.0802 47.5932 47.1906 46.2078L60 30.1956L72.8112 46.2097C73.9198 47.5932 75.5727 48.3871 77.3438 48.3871H85.1613V120H112.258V77.0631C112.866 77.2804 113.512 77.4193 114.194 77.4193C117.394 77.4193 120 74.8138 120 71.6129V41.8104C120 37.9839 117.141 34.6875 113.351 34.146ZM100.542 53.4951L98.7097 55.3276L96.8772 53.4951L98.4847 40.6319C98.5604 40.6338 98.6322 40.6452 98.7097 40.6452C98.7872 40.6452 98.859 40.6338 98.9346 40.6319L100.542 53.4951ZM90.9677 17.4194C90.9677 13.1496 94.4399 9.67742 98.7097 9.67742C102.979 9.67742 106.452 13.1496 106.452 17.4194V21.2903C106.452 25.5601 102.979 29.0323 98.7097 29.0323C94.4399 29.0323 90.9677 25.5601 90.9677 21.2903V17.4194ZM98.7097 32.9032C100.069 32.9032 101.367 32.6556 102.581 32.2256V34.3047C102.101 35.0457 100.767 36.7742 98.7097 36.7742C96.6485 36.7742 95.3131 35.0381 94.8387 34.3066V32.2256C96.0522 32.6556 97.3507 32.9032 98.7097 32.9032ZM43.1363 29.4519L42.8358 28.2715L38.7097 27.4455V22.8771L42.8358 22.0511L43.1363 20.8707C43.5503 19.248 44.1891 17.7019 45.0406 16.2739L45.6634 15.2249L43.3301 11.7216L46.5603 8.49137L50.0655 10.8276L51.1126 10.2019C52.5387 9.35232 54.0849 8.71157 55.7075 8.29952L56.8898 7.99899L57.7139 3.87097H62.2842L63.1083 7.9971L64.2906 8.29763C65.9132 8.70968 67.4594 9.35043 68.8855 10.2L69.9326 10.8247L73.4378 8.48948L76.668 11.7197L74.3337 15.223L74.9575 16.2721C75.809 17.7 76.4497 19.2462 76.8618 20.8688L77.1623 22.0492L81.2903 22.8771V27.4455L77.1642 28.2715L76.8637 29.4519C76.7673 29.8337 76.6161 30.1937 76.4941 30.5651L73.4028 27.0325C73.4888 26.4135 73.5484 25.7907 73.5484 25.1613C73.5484 17.6906 67.4688 11.6129 60 11.6129C52.5312 11.6129 46.4516 17.6906 46.4516 25.1613C46.4516 25.7888 46.5112 26.4135 46.5972 27.0325L43.5059 30.5651C43.3839 30.1937 43.2327 29.8337 43.1363 29.4519ZM60 20.9303C58.9434 19.9606 57.5495 19.3548 56.0071 19.3548C54.2966 19.3548 52.6701 20.092 51.5436 21.3792L50.8395 22.1825C52.105 18.3096 55.7094 15.4839 60 15.4839C64.2906 15.4839 67.8969 18.3096 69.1605 22.1843L68.4564 21.3792C67.3299 20.092 65.7034 19.3548 63.9929 19.3548C62.4505 19.3548 61.0566 19.9606 60 20.9303ZM23.1228 53.4951L21.2903 55.3276L19.4578 53.4951L21.0654 40.6319C21.141 40.6338 21.2128 40.6452 21.2903 40.6452C21.3678 40.6452 21.4396 40.6338 21.5152 40.6319L23.1228 53.4951ZM13.5484 17.4194C13.5484 13.1496 17.0205 9.67742 21.2903 9.67742C25.5601 9.67742 29.0323 13.1496 29.0323 17.4194V21.2903C29.0323 25.5601 25.5601 29.0323 21.2903 29.0323C17.0205 29.0323 13.5484 25.5601 13.5484 21.2903V17.4194ZM21.2903 32.9032C22.6493 32.9032 23.9478 32.6556 25.1613 32.2256V34.3047C24.6812 35.0457 23.3477 36.7742 21.2903 36.7742C19.2329 36.7742 17.8994 35.0457 17.4194 34.3047V32.2256C18.6328 32.6556 19.9313 32.9032 21.2903 32.9032ZM11.6129 71.6129V67.7419H19.3548V116.129H11.6129V71.6129ZM23.2258 116.129V67.7419H30.9677V116.129H23.2258ZM57.6137 26.9824L44.1693 43.7884C43.7979 44.2506 43.2469 44.5161 42.6562 44.5161H30.9677V63.871H11.6129V44.5161H7.74194V71.6129C7.74194 72.6789 6.87437 73.5484 5.80645 73.5484C4.73853 73.5484 3.87097 72.6789 3.87097 71.6129V41.8104C3.87097 39.8957 5.29895 38.2494 7.19569 37.9782L14.5294 36.9311C15.1162 37.723 16.0377 38.7446 17.3031 39.5149L15.3809 54.8938L21.2903 60.8014L27.1998 54.8919L25.2775 39.513C26.5449 38.7409 27.4663 37.7202 28.0513 36.9292L41.4097 38.8373L54.4572 23.9261C54.8456 23.481 55.4108 23.2239 56.0052 23.2239C57.1393 23.2258 58.0645 24.1491 58.0645 25.2832V25.6952C58.0645 26.1621 57.9039 26.6186 57.6137 26.9824ZM89.0323 67.7419H96.7742V116.129H89.0323V67.7419ZM108.387 116.129H100.645V67.7419H108.387V116.129ZM116.129 71.6129C116.129 72.6789 115.261 73.5484 114.194 73.5484C113.126 73.5484 112.258 72.6789 112.258 71.6129V44.5161H108.387V63.871H89.0323V44.5161H77.3438C76.7531 44.5161 76.2021 44.2506 75.8345 43.7903L62.3882 26.9824C62.0961 26.6186 61.9355 26.1621 61.9355 25.6952V25.2832C61.9355 24.1491 62.8607 23.2258 63.9929 23.2258C64.5873 23.2258 65.1525 23.481 65.5409 23.928L78.5884 38.8373L91.9468 36.9292C92.5337 37.7202 93.4551 38.7428 94.7206 39.513L92.7983 54.8919L98.7097 60.8014L104.619 54.8919L102.697 39.513C103.964 38.7409 104.886 37.7202 105.471 36.9292L112.804 37.9763C114.699 38.2475 116.129 39.8957 116.129 41.8085V71.6129Z" fill="black"/>
<path d="M46 65.8065H49.871V69.6774H46V65.8065Z" fill="black"/>
<path d="M58.0967 65.8065H61.9676V69.6774H58.0967V65.8065Z" fill="black"/>
<path d="M69.7097 65.8065H73.5807V69.6774H69.7097V65.8065Z" fill="black"/>
<path d="M46 78.871H49.871V82.7419H46V78.871Z" fill="black"/>
<path d="M58.0967 78.871H61.9676V82.7419H58.0967V78.871Z" fill="black"/>
<path d="M69.7097 78.871H73.5807V82.7419H69.7097V78.871Z" fill="black"/>
<path d="M46 91.9355H49.871V95.8064H46V91.9355Z" fill="black"/>
<path d="M58.0967 91.9355H61.9676V95.8064H58.0967V91.9355Z" fill="black"/>
<path d="M69.7097 91.9355H73.5807V95.8064H69.7097V91.9355Z" fill="black"/>
<path d="M12 16.5H19.5L22 14L30 16.5" stroke="black" stroke-width="4"/>
<path d="M90 16.5H97.5L100 14L108 16.5" stroke="black" stroke-width="4"/>
</g>
<defs>
<clipPath id="clip0">
<rect width="120" height="120" fill="white"/>
</clipPath>
</defs>
</svg>
