<svg width="120" height="120" viewBox="0 0 120 120" fill="none" xmlns="http://www.w3.org/2000/svg">
<path d="M2 25.8938V2H35V25.8938H28.0244V32L17.8293 25.8938H2Z" fill="#F7960A"/>
<path d="M7.74194 7.74194H27.0968V11.6129H7.74194V7.74194Z" fill="black"/>
<path d="M7.74194 15.4839H27.0968V19.3548H7.74194V15.4839Z" fill="black"/>
<path d="M29.0323 34.2291V27.0968H34.8387V0H0V27.0968H15.9659L29.0323 34.2291ZM3.87097 3.87097H30.9677V23.2258H25.1613V27.7063L16.9525 23.2258H3.87097V3.87097Z" fill="black"/>
<path d="M1 67.0488V43H10V67.0488L5.86486 72L1 67.0488Z" fill="#F7960A" stroke="black"/>
<path d="M40.6452 71.6129H9.42225L11.6129 68.3288V36.7742C11.6129 33.5733 9.00737 30.9677 5.80645 30.9677C2.60553 30.9677 0 33.5733 0 36.7742V68.3288L4.77067 75.4839H40.6452V71.6129ZM5.80645 34.8387C6.87437 34.8387 7.74194 35.7082 7.74194 36.7742V40.6452H3.87097V36.7742C3.87097 35.7082 4.73853 34.8387 5.80645 34.8387ZM5.80645 70.0583L3.87097 67.1551V44.5161H7.74194V67.1551L5.80645 70.0583Z" fill="black"/>
<path d="M15.4839 63.871H32.9032V67.7419H15.4839V63.871Z" fill="black"/>
<path d="M15.4839 56.129H32.9032V60H15.4839V56.129Z" fill="black"/>
<path d="M15.4839 48.3871H25.1613V52.2581H15.4839V48.3871Z" fill="black"/>
<path fill-rule="evenodd" clip-rule="evenodd" d="M85.1613 75.8676L109.392 81.2497C115.638 82.6389 120 88.0796 120 94.4767V120H27.0968V94.4767C27.0968 88.0796 31.4592 82.6389 37.7051 81.2516L61.9355 75.8695V72.0155C58.2507 69.6056 55.3645 66.0871 53.7371 61.9355H48.3871C44.1173 61.9355 40.6452 58.4633 40.6452 54.1936V40.6452C40.6452 37.792 42.213 35.3226 44.5162 33.9797V27.0968C44.5162 12.1781 56.6536 0.0406399 71.5723 0.0387497C81.8867 0.0387497 91.1596 5.7696 95.7715 14.9943L96.2327 15.9177C100.061 17.5413 102.581 21.2979 102.581 25.5138V33.9778C104.884 35.3207 106.452 37.7901 106.452 40.6433V54.1917C106.452 58.4614 102.979 61.9336 98.7097 61.9336H93.3597C91.7323 66.0852 88.8461 69.6037 85.1613 72.0136V75.8676ZM68.1924 116.008H64.2439L64.2197 116.129H46.4516V94.8387H42.5807V116.129H30.9678V94.4767C30.9678 89.9074 34.0836 86.0203 38.5453 85.0299L54.1959 81.5514L54.1936 81.5323L67.5783 78.3898L65.8065 76.6179V74.0049C68.2107 74.948 70.8153 75.4839 73.5484 75.4839C76.2815 75.4839 78.8861 74.948 81.2904 74.0049V76.6179L79.5636 78.3447L94.5652 81.9213L108.552 85.0299C113.013 86.0203 116.129 89.9074 116.129 94.4767V116.129H104.516V94.8387H100.645V116.129H82.8771L82.8529 116.008H78.9063L78.9305 116.129H68.1682L68.1924 116.008ZM98.7097 58.0645C100.845 58.0645 102.581 56.3284 102.581 54.1936V40.6452C102.581 38.5103 100.845 36.7742 98.7097 36.7742H94.8387V54.1936C94.8387 55.5176 94.7017 56.8066 94.4692 58.0645H98.7097ZM71.5723 3.91161C58.7885 3.91161 48.3871 14.3129 48.3871 27.0968V32.9032H52.2581V27.0968H56.1291V32.9032H56.8936C60.6134 32.9032 64.0685 31.0547 66.1316 27.9596L69.3523 30.1068C68.6653 31.1379 67.862 32.065 66.968 32.8796C70.5346 32.752 73.8196 30.9441 75.809 27.9596L79.0298 30.1068C78.3427 31.1379 77.5394 32.065 76.6454 32.8796C80.212 32.752 83.4971 30.9441 85.4864 27.9596L88.7072 30.1068C88.022 31.1379 87.2187 32.0631 86.3266 32.8758C87.9502 32.8163 89.5256 32.4023 90.9678 31.6643V27.0968H94.8387V32.9032H98.7097V25.5176C98.7097 22.69 96.9075 20.1912 94.2292 19.2972L93.4684 19.043L92.3088 16.7285C88.3566 8.82214 80.4096 3.91161 71.5723 3.91161ZM44.5162 54.1936C44.5162 56.3284 46.2522 58.0645 48.3871 58.0645H52.6276C52.3951 56.8066 52.2581 55.5176 52.2581 54.1936V36.7742H48.3871C46.2522 36.7742 44.5162 38.5103 44.5162 40.6452V54.1936ZM56.1291 36.7742V54.1936C56.1291 63.7991 63.9428 71.6129 73.5484 71.6129C80.3689 71.6129 86.2727 67.6607 89.1287 61.9355H80.9322C80.1308 64.1828 78.0015 65.8064 75.482 65.8064H71.611C68.4101 65.8064 65.8046 63.2009 65.8046 60C65.8046 56.7991 68.4101 54.1936 71.611 54.1936H75.482C78.0015 54.1936 80.1308 55.8172 80.9322 58.0645H90.5189C90.8033 56.818 90.9678 55.5251 90.9678 54.1936V35.8603C89.3555 36.4396 87.6601 36.7742 85.9259 36.7742H83.2258V35.0476C81.108 36.1627 78.7236 36.7742 76.2485 36.7742H73.5484V35.0476C71.4305 36.1627 69.0461 36.7742 66.571 36.7742H63.871V35.0476C61.7531 36.1627 59.3687 36.7742 56.8936 36.7742H56.1291ZM75.4839 61.9355C76.5518 61.9355 77.4194 61.066 77.4194 60C77.4194 58.934 76.5518 58.0645 75.4839 58.0645H71.6129C70.545 58.0645 69.6774 58.934 69.6774 60C69.6774 61.066 70.545 61.9355 71.6129 61.9355H75.4839Z" fill="black"/>
<path d="M64 77L73.6774 85L84 77" stroke="black" stroke-width="4"/>
</svg>
