<svg width="120" height="120" viewBox="0 0 120 120" fill="none" xmlns="http://www.w3.org/2000/svg">
<path d="M37.9839 74.0323H46.4516L48.1452 112.258H23.2258L37.9839 74.0323Z" fill="#F7960A"/>
<path d="M106.452 79.3548H99.6273C100.856 77.7331 101.613 75.7353 101.613 73.5484C101.613 71.4135 99.8768 69.6774 97.742 69.6774H94.8387V64.8482C109.252 61.3533 120 48.3758 120 32.9032C120 14.76 105.24 0 87.0968 0C68.9535 0 54.1936 14.76 54.1936 32.9032C54.1936 48.3758 64.9417 61.3533 79.3549 64.8482V69.6774H77.3107C75.8184 69.6774 74.3205 70.0318 72.9833 70.6971L60.7702 76.806C59.9669 77.2086 59.0691 77.4193 58.1732 77.4193H48.3871V73.5484H23.2258V77.4193H36.7742V90.9677H40.6452V77.4193H44.5162V108.387H40.6452V94.8387H36.7742V108.387H23.2258V112.258H48.3871V108.387H58.1732C59.0691 108.387 59.9669 108.598 60.7702 108.999L69.1142 113.172C70.4496 113.839 71.9475 114.194 73.4397 114.194H79.3549V120H94.8387V114.194H106.452C109.653 114.194 112.258 111.588 112.258 108.387C112.258 106.895 111.676 105.546 110.749 104.516C111.678 103.486 112.258 102.137 112.258 100.645C112.258 99.1529 111.676 97.8043 110.749 96.7742C111.678 95.7441 112.258 94.3955 112.258 92.9032C112.258 91.411 111.676 90.0624 110.749 89.0323C111.678 88.0021 112.258 86.6535 112.258 85.1613C112.258 81.9604 109.653 79.3548 106.452 79.3548ZM108.387 85.1613C108.387 86.2292 107.518 87.0968 106.452 87.0968H92.9032C91.8372 87.0968 90.9678 86.2292 90.9678 85.1613C90.9678 84.0934 91.8372 83.2258 92.9032 83.2258H106.452C107.518 83.2258 108.387 84.0934 108.387 85.1613ZM108.387 92.9032C108.387 93.9711 107.518 94.8387 106.452 94.8387H92.9032C91.8372 94.8387 90.9678 93.9711 90.9678 92.9032C90.9678 91.8353 91.8372 90.9677 92.9032 90.9677H106.452C107.518 90.9677 108.387 91.8353 108.387 92.9032ZM108.387 100.645C108.387 101.713 107.518 102.581 106.452 102.581H92.9032C91.8372 102.581 90.9678 101.713 90.9678 100.645C90.9678 99.5772 91.8372 98.7097 92.9032 98.7097H106.452C107.518 98.7097 108.387 99.5772 108.387 100.645ZM58.0645 32.9032C58.0645 16.8948 71.0884 3.87097 87.0968 3.87097C103.105 3.87097 116.129 16.8948 116.129 32.9032C116.129 48.9116 103.105 61.9355 87.0968 61.9355C71.0884 61.9355 58.0645 48.9116 58.0645 32.9032ZM83.2258 65.5588C84.4979 65.7082 85.7841 65.8064 87.0968 65.8064C88.4095 65.8064 89.6957 65.7082 90.9678 65.5588V69.6774H83.2258V65.5588ZM73.4397 110.323C72.5438 110.323 71.646 110.112 70.8427 109.711L62.4988 105.538C61.1634 104.871 59.6655 104.516 58.1732 104.516H48.3871V81.2903H58.1732C59.6655 81.2903 61.1634 80.9359 62.5007 80.2706L74.7137 74.1617C75.517 73.7591 76.4148 73.5484 77.3107 73.5484H97.742C97.742 76.7493 95.1364 79.3548 91.9355 79.3548H80.2546L74.4812 88.0182C73.005 90.2344 70.9665 92.0319 68.5859 93.2208C66.468 94.2792 64.0997 94.8387 61.7342 94.8387H58.0645V98.7097H61.7342C64.697 98.7097 67.6664 98.0094 70.3163 96.6835C73.2989 95.1931 75.8515 92.9382 77.702 90.1644L79.3549 87.6837V110.323H73.4397ZM83.2258 116.129V83.2258H87.4531C87.2357 83.8335 87.0968 84.4799 87.0968 85.1613C87.0968 86.6535 87.679 88.0021 88.6061 89.0323C87.6771 90.0624 87.0968 91.411 87.0968 92.9032C87.0968 94.3955 87.679 95.7441 88.6061 96.7742C87.6771 97.8043 87.0968 99.1529 87.0968 100.645C87.0968 102.137 87.679 103.486 88.6061 104.516C87.6771 105.546 87.0968 106.895 87.0968 108.387C87.0968 110.907 88.7204 113.036 90.9678 113.837V116.129H83.2258ZM106.452 110.323H92.9032C91.8372 110.323 90.9678 109.455 90.9678 108.387C90.9678 107.319 91.8372 106.452 92.9032 106.452H106.452C107.518 106.452 108.387 107.319 108.387 108.387C108.387 109.455 107.518 110.323 106.452 110.323Z" fill="black"/>
<path d="M95.5352 17.6632L93.6583 21.0465C97.9687 23.4366 100.645 27.9813 100.645 32.9032H104.516C104.516 26.5742 101.075 20.7346 95.5352 17.6632Z" fill="black"/>
<path d="M87.0968 19.3548C88.2422 19.3548 89.3829 19.4985 90.4858 19.7829L91.4479 16.032C90.0312 15.67 88.5673 15.4839 87.0968 15.4839V19.3548Z" fill="black"/>
<path d="M87.0968 11.6129C98.8354 11.6129 108.387 21.1646 108.387 32.9032C108.387 37.9243 106.597 42.8009 103.347 46.6416L106.3 49.1441C110.143 44.605 112.258 38.8373 112.258 32.9032C112.258 19.0297 100.97 7.74194 87.0968 7.74194C81.1627 7.74194 75.395 9.85982 70.8559 13.7015L73.3565 16.6529C77.1963 13.4029 82.0757 11.6129 87.0968 11.6129Z" fill="black"/>
<path d="M103.338 52.105L100.837 49.1535C96.9972 52.4036 92.1179 54.1935 87.0968 54.1935C75.3582 54.1935 65.8065 44.6418 65.8065 32.9032C65.8065 27.8821 67.5964 23.0056 70.8465 19.1649L67.8931 16.6624C64.0505 21.2015 61.9355 26.9692 61.9355 32.9032C61.9355 46.7767 73.2233 58.0645 87.0968 58.0645C93.0308 58.0645 98.7985 55.9466 103.338 52.105Z" fill="black"/>
<path d="M1.93549 49.1022V2.17743L49.8387 3.38711V49.1022H37.2581V58.0645L24.9135 49.1022H1.93549Z" fill="#F7960A" stroke="black"/>
<path d="M38.7097 60V50.3226H50.3226V0H0V50.3226H25.8058L38.7097 60ZM3.87097 3.87097H46.4516V46.4516H34.8387V52.2581L27.0968 46.4516H3.87097V3.87097Z" fill="black"/>
<path d="M7.74194 73.5484H11.6129V77.4194H7.74194V73.5484Z" fill="black"/>
<path d="M15.4839 73.5484H19.3549V77.4194H15.4839V73.5484Z" fill="black"/>
<path d="M7.74194 108.387H11.6129V112.258H7.74194V108.387Z" fill="black"/>
<path d="M15.4839 108.387H19.3549V112.258H15.4839V108.387Z" fill="black"/>
</svg>
