<svg width="120" height="120" viewBox="0 0 120 120" fill="none" xmlns="http://www.w3.org/2000/svg">
<path d="M30 3.75H33.75V7.5H30V3.75Z" fill="black"/>
<path d="M39.375 3.75H43.125V7.5H39.375V3.75Z" fill="black"/>
<path d="M48.75 3.75H52.5V7.5H48.75V3.75Z" fill="black"/>
<path d="M58.125 3.75H61.875V7.5H58.125V3.75Z" fill="black"/>
<path d="M67.5 3.75H71.25V7.5H67.5V3.75Z" fill="black"/>
<path d="M17.8125 3.75H24.375L102.656 115.781H17.8125V3.75Z" fill="#F7960A"/>
<path d="M76.875 3.75H80.625V7.5H76.875V3.75Z" fill="black"/>
<path d="M86.25 3.75H90V7.5H86.25V3.75Z" fill="black"/>
<path d="M80.625 26.25H84.375C84.8723 26.25 85.3492 26.4475 85.7008 26.7992C86.0525 27.1508 86.25 27.6277 86.25 28.125C86.25 28.6223 86.0525 29.0992 85.7008 29.4508C85.3492 29.8025 84.8723 30 84.375 30H76.875V33.75H80.625V35.625H84.375V33.75C85.8668 33.75 87.2976 33.1574 88.3525 32.1025C89.4074 31.0476 90 29.6168 90 28.125C90 26.6332 89.4074 25.2024 88.3525 24.1475C87.2976 23.0926 85.8668 22.5 84.375 22.5H80.625C80.1277 22.5 79.6508 22.3025 79.2992 21.9508C78.9475 21.5992 78.75 21.1223 78.75 20.625C78.75 20.1277 78.9475 19.6508 79.2992 19.2992C79.6508 18.9475 80.1277 18.75 80.625 18.75H88.125V15H84.375V13.125H80.625V15C79.1332 15 77.7024 15.5926 76.6475 16.6475C75.5926 17.7024 75 19.1332 75 20.625C75 22.1168 75.5926 23.5476 76.6475 24.6025C77.7024 25.6574 79.1332 26.25 80.625 26.25Z" fill="black"/>
<path d="M91.875 76.875H80.625V54.375H91.875V50.625H80.625V45H91.875V41.25H28.125V45H61.875V50.625H28.125V54.375H61.875V76.875H28.125V80.625H91.875V76.875ZM65.625 45H76.875V50.625H65.625V45ZM65.625 54.375H76.875V76.875H65.625V54.375Z" fill="black"/>
<path d="M86.25 95.625H91.875V99.375H86.25V95.625Z" fill="black"/>
<path d="M76.875 103.125H91.875V106.875H76.875V103.125Z" fill="black"/>
<path d="M24.1406 5.15625H18.75V114.375H100.781V5.15625H96.0938" stroke="black" stroke-width="4"/>
</svg>
